<svg width="15" height="15" viewBox="0 0 15 15" fill="none" xmlns="http://www.w3.org/2000/svg">
<path fill-rule="evenodd" clip-rule="evenodd" d="M7.5 15C6.63688 15 5.92794 14.3259 5.87255 13.4763C5.36777 13.3392 4.88314 13.1377 4.42601 12.8755C3.78642 13.438 2.80746 13.414 2.19693 12.8034C1.88856 12.4954 1.71927 12.0859 1.71927 11.6501C1.71927 11.2499 1.86222 10.8714 2.12448 10.5739C1.86222 10.1167 1.66116 9.63209 1.52363 9.1273C0.674458 9.0719 0 8.36333 0 7.49981C0 6.63666 0.67407 5.9281 1.52363 5.8727C1.66116 5.36752 1.86222 4.88287 2.12448 4.42612C1.86222 4.12821 1.71927 3.7501 1.71927 3.34991C1.71927 2.91407 1.88856 2.50458 2.19693 2.1966C2.50491 1.88861 2.91439 1.71892 3.34982 1.71892C3.75039 1.71892 4.12849 1.86226 4.42639 2.12454C4.88314 1.86226 5.36777 1.66081 5.87255 1.52367C5.92794 0.674088 6.63688 0 7.5 0C8.36312 0 9.07206 0.674088 9.12745 1.52367C9.63223 1.66081 10.1169 1.86226 10.5736 2.12454C10.8715 1.86226 11.2496 1.71892 11.6502 1.71892C12.0856 1.71892 12.4951 1.88861 12.8031 2.1966C13.414 2.80754 13.438 3.78613 12.8755 4.42612C13.1378 4.88287 13.3388 5.36752 13.4764 5.8727C14.3259 5.9281 15 6.63666 15 7.49981C15 8.36333 14.3255 9.0719 13.4764 9.1273C13.3388 9.63209 13.1378 10.1167 12.8755 10.5739C13.438 11.2143 13.414 12.1929 12.8031 12.8034C12.1925 13.414 11.2136 13.438 10.574 12.8755C10.1169 13.1377 9.63223 13.3392 9.12745 13.4763C9.07206 14.3259 8.36312 15 7.5 15ZM3.93402 7.49979C3.93402 5.53371 5.53358 3.93372 7.50001 3.93372C9.46643 3.93372 11.066 5.53371 11.066 7.49979C11.066 9.46627 9.46643 11.0663 7.50001 11.0663C5.53358 11.0663 3.93402 9.46627 3.93402 7.49979Z" fill="#F8F8F8"/>
</svg>
